<mxfile host="app.diagrams.net" modified="2024-04-29T18:31:00.565Z" agent="Mozilla/5.0 (Macintosh; Intel Mac OS X 10_15_7) AppleWebKit/537.36 (KHTML, like Gecko) Chrome/124.0.0.0 Safari/537.36" etag="uvhzgWa4_FysAoTMYdqr" version="24.3.1" type="github">
  <diagram id="R2lEEEUBdFMjLlhIrx00" name="Page-1">
    <mxGraphModel dx="1603" dy="481" grid="1" gridSize="10" guides="1" tooltips="1" connect="1" arrows="1" fold="1" page="1" pageScale="1" pageWidth="850" pageHeight="1100" math="0" shadow="0" extFonts="Permanent Marker^https://fonts.googleapis.com/css?family=Permanent+Marker">
      <root>
        <mxCell id="0" />
        <mxCell id="1" parent="0" />
        <mxCell id="3vbELTmPtjZK7afLqrrK-35" value="Relationship" style="shape=rhombus;perimeter=rhombusPerimeter;whiteSpace=wrap;html=1;align=center;" vertex="1" parent="1">
          <mxGeometry x="-550" y="800" width="120" height="60" as="geometry" />
        </mxCell>
        <mxCell id="3vbELTmPtjZK7afLqrrK-37" value="movies" style="whiteSpace=wrap;html=1;align=center;" vertex="1" parent="1">
          <mxGeometry x="-250" y="120" width="100" height="40" as="geometry" />
        </mxCell>
        <mxCell id="3vbELTmPtjZK7afLqrrK-38" value="make" style="shape=rhombus;perimeter=rhombusPerimeter;whiteSpace=wrap;html=1;align=center;" vertex="1" parent="1">
          <mxGeometry x="-260" y="220" width="120" height="60" as="geometry" />
        </mxCell>
        <mxCell id="3vbELTmPtjZK7afLqrrK-41" value="" style="endArrow=none;html=1;rounded=0;exitX=0.5;exitY=1;exitDx=0;exitDy=0;" edge="1" parent="1" source="3vbELTmPtjZK7afLqrrK-38">
          <mxGeometry relative="1" as="geometry">
            <mxPoint x="-230" y="210" as="sourcePoint" />
            <mxPoint x="-200" y="340" as="targetPoint" />
          </mxGeometry>
        </mxCell>
        <mxCell id="3vbELTmPtjZK7afLqrrK-42" value="N" style="resizable=0;html=1;whiteSpace=wrap;align=right;verticalAlign=bottom;" connectable="0" vertex="1" parent="3vbELTmPtjZK7afLqrrK-41">
          <mxGeometry x="1" relative="1" as="geometry">
            <mxPoint x="10" y="-10" as="offset" />
          </mxGeometry>
        </mxCell>
        <mxCell id="3vbELTmPtjZK7afLqrrK-43" value="" style="endArrow=none;html=1;rounded=0;entryX=0.5;entryY=1;entryDx=0;entryDy=0;exitX=0.5;exitY=0;exitDx=0;exitDy=0;" edge="1" parent="1" source="3vbELTmPtjZK7afLqrrK-38" target="3vbELTmPtjZK7afLqrrK-37">
          <mxGeometry relative="1" as="geometry">
            <mxPoint x="-260" y="200" as="sourcePoint" />
            <mxPoint x="-100" y="200" as="targetPoint" />
          </mxGeometry>
        </mxCell>
        <mxCell id="3vbELTmPtjZK7afLqrrK-44" value="M" style="resizable=0;html=1;whiteSpace=wrap;align=right;verticalAlign=bottom;" connectable="0" vertex="1" parent="3vbELTmPtjZK7afLqrrK-43">
          <mxGeometry x="1" relative="1" as="geometry">
            <mxPoint x="20" y="20" as="offset" />
          </mxGeometry>
        </mxCell>
        <mxCell id="3vbELTmPtjZK7afLqrrK-45" value="movies" style="whiteSpace=wrap;html=1;align=center;" vertex="1" parent="1">
          <mxGeometry x="-420" y="810" width="100" height="40" as="geometry" />
        </mxCell>
        <mxCell id="3vbELTmPtjZK7afLqrrK-48" style="edgeStyle=orthogonalEdgeStyle;rounded=0;orthogonalLoop=1;jettySize=auto;html=1;" edge="1" parent="1" source="3vbELTmPtjZK7afLqrrK-46" target="3vbELTmPtjZK7afLqrrK-47">
          <mxGeometry relative="1" as="geometry" />
        </mxCell>
        <mxCell id="3vbELTmPtjZK7afLqrrK-46" value="directors" style="whiteSpace=wrap;html=1;align=center;" vertex="1" parent="1">
          <mxGeometry x="-250" y="340" width="100" height="40" as="geometry" />
        </mxCell>
        <mxCell id="3vbELTmPtjZK7afLqrrK-50" style="edgeStyle=orthogonalEdgeStyle;rounded=0;orthogonalLoop=1;jettySize=auto;html=1;entryX=0.5;entryY=0;entryDx=0;entryDy=0;" edge="1" parent="1" source="3vbELTmPtjZK7afLqrrK-47" target="3vbELTmPtjZK7afLqrrK-49">
          <mxGeometry relative="1" as="geometry" />
        </mxCell>
        <mxCell id="3vbELTmPtjZK7afLqrrK-47" value="are" style="shape=hexagon;perimeter=hexagonPerimeter2;whiteSpace=wrap;html=1;fixedSize=1;" vertex="1" parent="1">
          <mxGeometry x="-235" y="440" width="70" height="40" as="geometry" />
        </mxCell>
        <mxCell id="3vbELTmPtjZK7afLqrrK-49" value="persons" style="whiteSpace=wrap;html=1;align=center;" vertex="1" parent="1">
          <mxGeometry x="-250" y="560" width="100" height="40" as="geometry" />
        </mxCell>
        <mxCell id="3vbELTmPtjZK7afLqrrK-51" value="id" style="ellipse;whiteSpace=wrap;html=1;align=center;fontStyle=4;strokeColor=default;verticalAlign=middle;fontFamily=Helvetica;fontSize=12;fontColor=default;fillColor=default;" vertex="1" parent="1">
          <mxGeometry x="-368.75" y="630" width="67.5" height="40" as="geometry" />
        </mxCell>
        <mxCell id="3vbELTmPtjZK7afLqrrK-52" value="Attribute" style="ellipse;whiteSpace=wrap;html=1;align=center;" vertex="1" parent="1">
          <mxGeometry x="-385" y="930" width="100" height="40" as="geometry" />
        </mxCell>
        <mxCell id="3vbELTmPtjZK7afLqrrK-54" value="first_ name" style="ellipse;whiteSpace=wrap;html=1;align=center;" vertex="1" parent="1">
          <mxGeometry x="-290" y="630" width="70" height="40" as="geometry" />
        </mxCell>
        <mxCell id="3vbELTmPtjZK7afLqrrK-55" value="last_name" style="ellipse;whiteSpace=wrap;html=1;align=center;" vertex="1" parent="1">
          <mxGeometry x="-210" y="630" width="70" height="40" as="geometry" />
        </mxCell>
        <mxCell id="3vbELTmPtjZK7afLqrrK-57" value="gender" style="ellipse;whiteSpace=wrap;html=1;align=center;" vertex="1" parent="1">
          <mxGeometry x="-130" y="630" width="70" height="40" as="geometry" />
        </mxCell>
        <mxCell id="3vbELTmPtjZK7afLqrrK-58" value="" style="endArrow=none;html=1;rounded=0;entryX=0.5;entryY=1;entryDx=0;entryDy=0;exitX=0.5;exitY=0;exitDx=0;exitDy=0;" edge="1" parent="1" source="3vbELTmPtjZK7afLqrrK-51" target="3vbELTmPtjZK7afLqrrK-49">
          <mxGeometry relative="1" as="geometry">
            <mxPoint x="-368.75" y="610" as="sourcePoint" />
            <mxPoint x="-208.75" y="610" as="targetPoint" />
            <Array as="points">
              <mxPoint x="-335" y="610" />
              <mxPoint x="-200" y="610" />
            </Array>
          </mxGeometry>
        </mxCell>
        <mxCell id="3vbELTmPtjZK7afLqrrK-61" value="" style="endArrow=none;html=1;rounded=0;entryX=0.5;entryY=1;entryDx=0;entryDy=0;exitX=0.5;exitY=0;exitDx=0;exitDy=0;" edge="1" parent="1" source="3vbELTmPtjZK7afLqrrK-57">
          <mxGeometry relative="1" as="geometry">
            <mxPoint x="-15" y="630" as="sourcePoint" />
            <mxPoint x="-200" y="600" as="targetPoint" />
            <Array as="points">
              <mxPoint x="-95" y="610" />
              <mxPoint x="-200" y="610" />
            </Array>
          </mxGeometry>
        </mxCell>
        <mxCell id="3vbELTmPtjZK7afLqrrK-62" value="" style="endArrow=none;html=1;rounded=0;entryX=0.5;entryY=1;entryDx=0;entryDy=0;exitX=0.5;exitY=0;exitDx=0;exitDy=0;" edge="1" parent="1" source="3vbELTmPtjZK7afLqrrK-55">
          <mxGeometry relative="1" as="geometry">
            <mxPoint x="-95" y="630" as="sourcePoint" />
            <mxPoint x="-200" y="600" as="targetPoint" />
            <Array as="points">
              <mxPoint x="-175" y="610" />
              <mxPoint x="-200" y="610" />
            </Array>
          </mxGeometry>
        </mxCell>
        <mxCell id="3vbELTmPtjZK7afLqrrK-64" value="" style="endArrow=none;html=1;rounded=0;entryX=0.5;entryY=1;entryDx=0;entryDy=0;exitX=0.5;exitY=0;exitDx=0;exitDy=0;" edge="1" parent="1" source="3vbELTmPtjZK7afLqrrK-54">
          <mxGeometry relative="1" as="geometry">
            <mxPoint x="-175" y="630" as="sourcePoint" />
            <mxPoint x="-200" y="600" as="targetPoint" />
            <Array as="points">
              <mxPoint x="-255" y="610" />
              <mxPoint x="-200" y="610" />
            </Array>
          </mxGeometry>
        </mxCell>
        <mxCell id="3vbELTmPtjZK7afLqrrK-66" style="edgeStyle=orthogonalEdgeStyle;rounded=0;orthogonalLoop=1;jettySize=auto;html=1;entryX=0;entryY=0.5;entryDx=0;entryDy=0;exitX=0.5;exitY=1;exitDx=0;exitDy=0;" edge="1" parent="1" source="3vbELTmPtjZK7afLqrrK-65" target="3vbELTmPtjZK7afLqrrK-47">
          <mxGeometry relative="1" as="geometry" />
        </mxCell>
        <mxCell id="3vbELTmPtjZK7afLqrrK-65" value="singers" style="whiteSpace=wrap;html=1;align=center;" vertex="1" parent="1">
          <mxGeometry x="-520" y="340" width="95" height="40" as="geometry" />
        </mxCell>
        <mxCell id="3vbELTmPtjZK7afLqrrK-67" value="..." style="ellipse;whiteSpace=wrap;html=1;align=center;" vertex="1" parent="1">
          <mxGeometry x="-110" y="120" width="70" height="40" as="geometry" />
        </mxCell>
        <mxCell id="3vbELTmPtjZK7afLqrrK-68" value="" style="endArrow=none;html=1;rounded=0;entryX=1;entryY=0.5;entryDx=0;entryDy=0;exitX=0;exitY=0.5;exitDx=0;exitDy=0;" edge="1" parent="1" source="3vbELTmPtjZK7afLqrrK-67" target="3vbELTmPtjZK7afLqrrK-37">
          <mxGeometry relative="1" as="geometry">
            <mxPoint x="-40" y="220" as="sourcePoint" />
            <mxPoint x="-145" y="190" as="targetPoint" />
            <Array as="points">
              <mxPoint x="-130" y="140" />
            </Array>
          </mxGeometry>
        </mxCell>
        <mxCell id="3vbELTmPtjZK7afLqrrK-70" style="edgeStyle=orthogonalEdgeStyle;rounded=0;orthogonalLoop=1;jettySize=auto;html=1;entryX=1;entryY=0.5;entryDx=0;entryDy=0;" edge="1" parent="1" source="3vbELTmPtjZK7afLqrrK-69" target="3vbELTmPtjZK7afLqrrK-47">
          <mxGeometry relative="1" as="geometry" />
        </mxCell>
        <mxCell id="3vbELTmPtjZK7afLqrrK-69" value="..." style="whiteSpace=wrap;html=1;align=center;" vertex="1" parent="1">
          <mxGeometry x="-100" y="445" width="80" height="30" as="geometry" />
        </mxCell>
        <mxCell id="3vbELTmPtjZK7afLqrrK-71" value="" style="endArrow=none;html=1;rounded=0;exitX=1;exitY=0.5;exitDx=0;exitDy=0;entryX=0;entryY=0.5;entryDx=0;entryDy=0;" edge="1" parent="1" source="3vbELTmPtjZK7afLqrrK-72" target="3vbELTmPtjZK7afLqrrK-65">
          <mxGeometry relative="1" as="geometry">
            <mxPoint x="-595" y="300" as="sourcePoint" />
            <mxPoint x="-560" y="360" as="targetPoint" />
            <Array as="points">
              <mxPoint x="-570" y="360" />
            </Array>
          </mxGeometry>
        </mxCell>
        <mxCell id="3vbELTmPtjZK7afLqrrK-72" value="vocal_range" style="ellipse;whiteSpace=wrap;html=1;align=center;" vertex="1" parent="1">
          <mxGeometry x="-660" y="340" width="70" height="40" as="geometry" />
        </mxCell>
      </root>
    </mxGraphModel>
  </diagram>
</mxfile>
